<svg width="20" height="20" viewBox="0 0 20 20" fill="none" xmlns="http://www.w3.org/2000/svg">
  <path d="M14.95 14.95C13.5255 16.0358 11.7909 16.6374 10 16.6667C4.16667 16.6667 0.833336 10 0.833336 10C1.86965 8.06825 3.30306 6.38051 5.05 5.05M8.25 3.53334C8.82365 3.39907 9.41093 3.33195 10 3.33334C15.8333 3.33334 19.1667 10 19.1667 10C18.6609 10.9463 18.0576 11.8373 17.3667 12.6583M11.7667 11.7667C11.5378 12.0123 11.2618 12.2093 10.9552 12.3459C10.6485 12.4826 10.3175 12.5561 9.98178 12.5619C9.64611 12.5677 9.31268 12.5057 9.00138 12.3798C8.69009 12.2539 8.40721 12.0668 8.16991 11.8295C7.93262 11.5922 7.74545 11.3093 7.61961 10.998C7.49378 10.6867 7.43172 10.3533 7.43752 10.0176C7.44333 9.68185 7.51686 9.35087 7.65351 9.04423C7.79016 8.73759 7.98716 8.4616 8.23334 8.23334" stroke="#64748B" stroke-width="1.5" stroke-linecap="round" stroke-linejoin="round"/>
  <path d="M0.833336 0.833344L19.1667 19.1667" stroke="#64748B" stroke-width="1.5" stroke-linecap="round" stroke-linejoin="round"/>
</svg> 